<svg width="100" height="100" viewBox="0 0 100 100" fill="none" xmlns="http://www.w3.org/2000/svg">
<g clip-path="url(#clip0_253_439)">
<path d="M53.125 25.0001C47.8647 24.9975 42.7376 26.6542 38.4734 29.7345C34.2093 32.8148 31.0254 37.1616 29.375 42.1563C29.2585 42.5602 29.0618 42.9364 28.7965 43.2625C28.5313 43.5886 28.203 43.8578 27.8313 44.054C27.4595 44.2502 27.0521 44.3695 26.6332 44.4045C26.2143 44.4396 25.7927 44.3899 25.3935 44.2582C24.9944 44.1265 24.6258 43.9157 24.31 43.6383C23.9942 43.3609 23.7376 43.0227 23.5556 42.6438C23.3736 42.2649 23.2699 41.8532 23.2506 41.4334C23.2314 41.0135 23.2971 40.594 23.4437 40.2001C25.6131 33.6489 29.8893 27.9996 35.6054 24.133C41.3216 20.2664 48.1565 18.3998 55.0445 18.8244C61.9326 19.2489 68.4865 21.9406 73.6846 26.4799C78.8827 31.0191 82.4328 37.1508 83.7812 43.9189C88.4954 44.5556 92.7913 46.9603 95.7987 50.646C98.8061 54.3316 100.3 59.0225 99.9785 63.7685C99.6567 68.5146 97.543 72.9609 94.0655 76.2068C90.5881 79.4527 86.0069 81.2555 81.25 81.2501H3.125C2.2962 81.2501 1.50134 80.9209 0.915291 80.3348C0.32924 79.7488 0 78.9539 0 78.1251C0 77.2963 0.32924 76.5014 0.915291 75.9154C1.50134 75.3293 2.2962 75.0001 3.125 75.0001H81.25C84.5652 75.0009 87.745 73.6848 90.0898 71.3411C92.4345 68.9975 93.7523 65.8184 93.7531 62.5032C93.754 59.188 92.4378 56.0083 90.0942 53.6635C87.7505 51.3187 84.5715 50.0009 81.2563 50.0001H81.0938C80.3212 50.0048 79.5743 49.7231 78.9972 49.2095C78.4201 48.6959 78.0537 47.9867 77.9688 47.2189C77.2847 41.1084 74.3728 35.4643 69.7897 31.3654C65.2066 27.2665 59.2737 25.0004 53.125 25.0001ZM0 53.1251C0 52.2963 0.32924 51.5014 0.915291 50.9154C1.50134 50.3293 2.2962 50.0001 3.125 50.0001H46.875C47.7038 50.0001 48.4987 50.3293 49.0847 50.9154C49.6708 51.5014 50 52.2963 50 53.1251C50 53.9539 49.6708 54.7488 49.0847 55.3348C48.4987 55.9209 47.7038 56.2501 46.875 56.2501H3.125C2.2962 56.2501 1.50134 55.9209 0.915291 55.3348C0.32924 54.7488 0 53.9539 0 53.1251ZM0 65.6251C0 64.7963 0.32924 64.0014 0.915291 63.4154C1.50134 62.8293 2.2962 62.5001 3.125 62.5001H59.375C60.2038 62.5001 60.9987 62.8293 61.5847 63.4154C62.1708 64.0014 62.5 64.7963 62.5 65.6251C62.5 66.4539 62.1708 67.2488 61.5847 67.8348C60.9987 68.4209 60.2038 68.7501 59.375 68.7501H3.125C2.2962 68.7501 1.50134 68.4209 0.915291 67.8348C0.32924 67.2488 0 66.4539 0 65.6251Z" fill="#A2A2A2"/>
</g>
<defs>
<clipPath id="clip0_253_439">
<rect width="100" height="100" fill="white"/>
</clipPath>
</defs>
</svg>
